<svg width="15" height="15" viewBox="0 0 15 15" fill="none" xmlns="http://www.w3.org/2000/svg">
<path fill-rule="evenodd" clip-rule="evenodd" d="M7.65415 13.75C6.80728 13.75 5.98165 13.7406 5.16478 13.7237C4.11978 13.7031 3.39665 13.0256 3.27853 11.9556C3.08165 10.1806 2.74478 5.99685 2.74165 5.95497C2.7204 5.69685 2.9129 5.4706 3.17103 5.44997C3.4254 5.4431 3.6554 5.62185 3.67603 5.87935C3.67915 5.92185 4.0154 10.0912 4.2104 11.8525C4.27728 12.4606 4.6054 12.7743 5.18415 12.7862C6.74665 12.8193 8.34103 12.8212 10.0598 12.79C10.6748 12.7781 11.0073 12.4706 11.076 11.8481C11.2698 10.1018 11.6073 5.92185 11.611 5.87935C11.6317 5.62185 11.8598 5.44185 12.1154 5.44997C12.3735 5.47122 12.566 5.69685 12.5454 5.95497C12.5417 5.99747 12.2029 10.1918 12.0079 11.9512C11.8867 13.0431 11.1654 13.7075 10.0767 13.7275C9.24353 13.7418 8.43978 13.75 7.65415 13.75Z" fill="#FC5E66"/>
<path fill-rule="evenodd" clip-rule="evenodd" d="M12.9425 4.36829H2.34375C2.085 4.36829 1.875 4.15829 1.875 3.89954C1.875 3.64079 2.085 3.43079 2.34375 3.43079H12.9425C13.2013 3.43079 13.4113 3.64079 13.4113 3.89954C13.4113 4.15829 13.2013 4.36829 12.9425 4.36829Z" fill="#FC5E66"/>
<path fill-rule="evenodd" clip-rule="evenodd" d="M10.9002 4.36831C10.189 4.36831 9.57149 3.86143 9.43149 3.16393L9.27961 2.40393C9.24774 2.28831 9.11586 2.18768 8.96586 2.18768H6.32024C6.17024 2.18768 6.03836 2.28831 6.00024 2.43268L5.85461 3.16393C5.71524 3.86143 5.09711 4.36831 4.38586 4.36831C4.12711 4.36831 3.91711 4.15831 3.91711 3.89956C3.91711 3.64081 4.12711 3.43081 4.38586 3.43081C4.65211 3.43081 4.88336 3.24081 4.93586 2.97956L5.08774 2.21956C5.24211 1.63706 5.74649 1.25018 6.32024 1.25018H8.96586C9.53961 1.25018 10.044 1.63706 10.1921 2.19143L10.3509 2.97956C10.4027 3.24081 10.634 3.43081 10.9002 3.43081C11.159 3.43081 11.369 3.64081 11.369 3.89956C11.369 4.15831 11.159 4.36831 10.9002 4.36831Z" fill="#FC5E66"/>
</svg>
